<svg xmlns="http://www.w3.org/2000/svg" xmlns:xlink="http://www.w3.org/1999/xlink" width="18" height="8" viewBox="0 0 18 8"><defs><clipPath id="a"><rect width="18" height="8" transform="translate(515.58 3924.219)" fill="#fff" stroke="#707070" stroke-width="1"/></clipPath></defs><g transform="translate(-515.58 -3924.219)" clip-path="url(#a)"><path d="M0,10.589a1.506,1.506,0,0,1-.311-.032A1.5,1.5,0,0,1-1.468,8.78L.113,1.272A1.5,1.5,0,0,1,1.272.113L8.78-1.468A1.5,1.5,0,0,1,10.557-.309,1.5,1.5,0,0,1,9.4,1.468L2.847,2.847,1.468,9.4A1.5,1.5,0,0,1,0,10.589Z" transform="translate(524.727 3932.515) rotate(-135)" fill="#2bb7b3"/></g></svg>