<svg xmlns="http://www.w3.org/2000/svg" width="45.004" height="43.005" viewBox="0 0 45.004 43.005"><g transform="translate(-2 -2)"><path d="M19.816,29.555a2.5,2.5,0,0,1-1.768-.732l-6.316-6.316a2.5,2.5,0,0,1,3.536-3.536l4.549,4.549L39.1,4.232a2.5,2.5,0,0,1,3.536,3.536L21.584,28.822A2.5,2.5,0,0,1,19.816,29.555Z" transform="translate(3.633 0.605)" fill="#2bb7b3"/><path d="M38.187,45H8.711A6.724,6.724,0,0,1,2,38.282V8.723A6.724,6.724,0,0,1,8.711,2h23.16a2.5,2.5,0,0,1,0,5H8.711A1.719,1.719,0,0,0,7,8.723V38.282A1.719,1.719,0,0,0,8.711,40H38.187A1.719,1.719,0,0,0,39.9,38.282V23.5a2.5,2.5,0,0,1,5,0v14.78A6.724,6.724,0,0,1,38.187,45Z" transform="translate(0 0)" fill="#2bb7b3" opacity="0.503"/></g></svg>