<svg xmlns="http://www.w3.org/2000/svg" width="240.423" height="240.425" viewBox="0 0 240.423 240.425"><g transform="translate(-413.728 837)"><path d="M150.179,51.245l7.728-24.494L133.413,34.48Z" transform="translate(417.048 -822.536)" fill="#c7000b"/><path d="M164.876,0,44.665,120.213l82.23,82.23,31.59-31.59-50.639-50.639,88.62-88.622L190.2,25.322,95.306,120.213l50.641,50.639-6.391,6.392L82.524,120.213,183.806,18.931l-6.269-6.269L69.985,120.213l63.3,63.3-6.391,6.392L57.2,120.213,171.145,6.27Z" transform="translate(369.063 -837)" fill="#2bb7b3"/><path d="M184.417,32.87l-82.23,82.23,31.587,31.59L184.417,96.05l6.391,6.389-88.622,88.622,6.271,6.271,94.891-94.892-18.93-18.929-50.642,50.641-6.391-6.391,57.033-57.032,31.712,31.71L114.847,203.723l6.268,6.269L228.667,102.44l-44.25-44.249-63.3,63.3-6.391-6.391,69.693-69.69,57.032,57.03L127.505,216.383l6.269,6.271L253.987,102.44Z" transform="translate(400.163 -819.228)" fill="#648dc8"/></g></svg>