<svg xmlns="http://www.w3.org/2000/svg" xmlns:xlink="http://www.w3.org/1999/xlink" width="126.228" height="35.001" viewBox="0 0 126.228 35.001"><defs><clipPath id="a"><rect width="126.228" height="35.001" fill="none"/></clipPath></defs><g transform="translate(0 0)"><path d="M58.178,20.366,59.3,16.8l-3.566,1.125Z" transform="translate(-35.832 -10.801)" fill="#c7000b"/><path d="M17.5,0,0,17.5,11.971,29.472l4.6-4.6L9.2,17.5,22.1,4.6l-.913-.913L7.372,17.5l7.373,7.373-.93.93-8.3-8.3L20.257,2.756l-.913-.913L3.686,17.5,12.9,26.716l-.931.93L1.826,17.5,18.413.913Z" transform="translate(0 0)" fill="#2bb7b3"/><path d="M36.125,32.614l4.6,4.6L48.1,29.841l.93.93-12.9,12.9.913.913L50.852,30.771,48.1,28.015l-7.373,7.372-.93-.93,8.3-8.3,4.616,4.616L37.969,45.516l.912.912L54.538,30.771,48.1,24.33l-9.215,9.215-.931-.93L48.1,22.469l8.3,8.3L39.811,47.359l.913.913,17.5-17.5L48.1,20.643Z" transform="translate(-23.224 -13.271)" fill="#648dc8"/><path d="M117.43,30H122V27.923H115.21V42.579h2.215V39.412h.005V36.026h5.339V33.932H117.43Z" transform="translate(-74.065 -17.951)" fill="#221815"/><rect width="0.847" height="2.073" transform="translate(49.448 9.972)" fill="#221815"/><path d="M129.591,61.843l4.161-3.955v3.955Z" transform="translate(-83.31 -37.214)" fill="#221815"/><path d="M327.415,27.776V42.433h2.215V39.266h0V35.879h5.339V33.785h-5.339V29.849h6.93V27.776Z" transform="translate(-210.484 -17.856)" fill="#221815"/><path d="M341.8,61.7h4.161V57.741Z" transform="translate(-219.729 -37.12)" fill="#221815"/><g transform="translate(0 0)"><g clip-path="url(#a)"><path d="M160,51.148c0,2.744-1.78,4.168-4.878,4.168-2.449,0-4.9-.9-5.382-3.98l2.116-.566c.189,1.654,1.4,2.535,3.246,2.535,1.654,0,2.659-.714,2.659-2.137a1.954,1.954,0,0,0-1.138-1.86l.9-2A3.879,3.879,0,0,1,160,51.148" transform="translate(-96.261 -30.414)" fill="#221815"/><path d="M160.534,30.827l-2.114.566a2.678,2.678,0,0,0-2.974-2.24c-1.633,0-2.449.71-2.449,1.945,0,1.356.993,1.86,2.446,2.329l-.893,1.987c-1.795-.6-3.814-1.5-3.814-4.274,0-2.532,1.76-3.976,4.71-3.976,2.576,0,4.525,1.067,5.088,3.664" transform="translate(-96.903 -17.462)" fill="#221815"/><rect width="3.092" height="3.092" transform="translate(66.569 21.809)" fill="#221815"/><path d="M223.37,48.874h5.653V46.8H223.37Z" transform="translate(-143.597 -30.087)" fill="#221815"/><path d="M213.8,38.354a4.485,4.485,0,0,1-3.85,1.892c-2.743,0-4.565-1.947-4.565-5.569,0-3.455,1.7-5.423,4.376-5.423a3.87,3.87,0,0,1,3.852,2.533l2.157-.586a5.913,5.913,0,0,0-5.947-4.041c-3.895,0-6.679,2.68-6.679,7.58s2.89,7.6,6.533,7.6a5.609,5.609,0,0,0,4.313-1.885h.042c0,.168-.021.377-.021,1.634h2.01V38.354Z" transform="translate(-130.594 -17.46)" fill="#221815"/><path d="M255.74,27.923h-2.659l-5.15,14.657h2.3l1.131-3.392h.031l.685-2.031h-.025l1.256-3.748c.44-1.319,1.026-3.078,1.047-3.12h.063c.021.042.607,1.821,1.047,3.141l1.256,3.727h-1.2l-.75,2.031h2.618l1.152,3.392h2.345Z" transform="translate(-159.387 -17.951)" fill="#221815"/><path d="M300.54,27.923h-2.2V30h0V42.579h2.2V30h0Z" transform="translate(-191.79 -17.95)" fill="#221815"/><path d="M309.651,31.654l-3.535-3.72h3.535Z" transform="translate(-196.792 -17.958)" fill="#221815"/><path d="M286.809,31.654l3.535-3.72h-3.535Z" transform="translate(-184.38 -17.958)" fill="#221815"/></g></g></g></svg>