<svg xmlns="http://www.w3.org/2000/svg" width="773.93" height="773.938" viewBox="0 0 773.93 773.938"><g transform="translate(-413.727 836.999)"><path d="M187.383,105.6,212.26,26.752,133.413,51.629Z" transform="translate(720.465 -731.079)" fill="#c7000b"/><path d="M431.628,0,44.665,386.969l264.7,264.7,101.69-101.69-163.01-163.01L533.318,101.691l-20.18-20.18L207.68,386.969,370.7,549.979l-20.572,20.577L166.536,386.969l326.03-326.03-20.18-20.18L126.17,386.969,329.938,590.736l-20.572,20.577L85.026,386.969,451.808,20.181Z" transform="translate(369.063 -837)" fill="#2bb7b3"/><path d="M366.891,32.87l-264.7,264.7,101.68,101.69,163.02-163.01,20.572,20.567L102.186,542.1l20.185,20.185L427.829,256.818l-60.938-60.933L203.871,358.9,183.3,338.328,366.891,154.741,468.973,256.818,142.943,582.853l20.175,20.18L509.334,256.818,366.891,114.38,163.119,318.142,142.546,297.57,366.891,73.236,550.478,256.818,183.691,623.605l20.18,20.185L590.839,256.818Z" transform="translate(596.818 -706.853)" fill="#648dc8"/></g></svg>