<svg xmlns="http://www.w3.org/2000/svg" width="251.713" height="251.713" viewBox="0 0 251.713 251.713"><g transform="translate(0 0)" opacity="0.142"><path d="M150.966,52.4l8.091-25.644-25.644,8.091Z" transform="translate(9.741 16.399)" fill="#fff"/><path d="M170.521,0,44.665,125.858l86.091,86.091,33.074-33.074-53.017-53.017,92.782-92.783-6.563-6.563L97.684,125.858,150.7,178.875l-6.691,6.692L84.3,125.858,190.34,19.82l-6.563-6.563-112.6,112.6,66.273,66.273-6.691,6.693L57.792,125.858,177.084,6.564Z" transform="translate(-44.665 0)" fill="#fff"/><path d="M188.278,32.87l-86.091,86.091,33.071,33.074,53.021-53.017,6.691,6.689L102.186,198.49l6.565,6.565L208.1,105.706,188.278,85.889l-53.021,53.019-6.691-6.691,59.711-59.71,33.2,33.2L115.442,211.746,122,218.309l112.6-112.6L188.278,59.38,122,125.652l-6.691-6.691L188.278,46l59.71,59.708L128.694,225l6.563,6.565L261.115,105.706Z" transform="translate(-9.402 20.148)" fill="#fff"/></g></svg>