<svg xmlns="http://www.w3.org/2000/svg" xmlns:xlink="http://www.w3.org/1999/xlink" width="115" height="101.025" viewBox="0 0 115 101.025"><defs><clipPath id="a"><rect width="115" height="101.026" fill="#fff"/></clipPath></defs><path d="M138.463,34.129l2.328-7.378-7.378,2.328Z" transform="translate(-71.501 -14.337)" fill="#fff"/><path d="M80.873,0,44.665,36.209,69.433,60.977l9.515-9.515L63.7,36.209,90.388,9.516,88.5,7.627,59.918,36.209,75.172,51.462l-1.925,1.925L56.068,36.209,86.575,5.7,84.687,3.814l-32.4,32.4L71.358,55.276,69.433,57.2,48.441,36.209l34.32-34.32Z" transform="translate(-23.937 0)" fill="#fff"/><path d="M126.954,32.87,102.186,57.638l9.514,9.515L126.954,51.9l1.925,1.924L102.186,80.518l1.889,1.889,28.582-28.582-5.7-5.7L111.7,63.377l-1.925-1.925,17.179-17.178,9.552,9.551L106,84.332l1.888,1.888,32.4-32.4L126.954,40.5,107.887,59.563l-1.925-1.925,20.992-20.991,17.178,17.178-34.32,34.32,1.888,1.889,36.209-36.209Z" transform="translate(-54.765 -17.616)" fill="#fff"/><path d="M0,174.213v19.811H2.993v-4.281H3v-4.577h7.216v-2.83H3v-5.321H9.176v-2.8Z" transform="translate(0 -93.366)" fill="#fff"/><rect width="1.145" height="2.802" transform="translate(11.223 80.846)" fill="#fff"/><path d="M14.958,210.728h5.624v-5.346Z" transform="translate(-8.016 -110.071)" fill="#fff"/><path d="M220.73,174.061v19.811h2.993V189.59h.006v-4.577h7.217v-2.83H223.73v-5.321H233.1v-2.8Z" transform="translate(-118.297 -93.285)" fill="#fff"/><path d="M235.689,210.576h5.624V205.23Z" transform="translate(-126.314 -109.99)" fill="#fff"/><g clip-path="url(#a)"><path d="M49.783,199.567c0,3.709-2.406,5.634-6.594,5.634-3.311,0-6.621-1.22-7.275-5.379l2.861-.765c.255,2.235,1.9,3.426,4.386,3.426,2.235,0,3.594-.964,3.594-2.888a2.64,2.64,0,0,0-1.538-2.514l1.215-2.7a5.243,5.243,0,0,1,3.351,5.187" transform="translate(-19.248 -104.175)" fill="#fff"/><path d="M50.2,178.375l-2.857.765c-.454-1.984-1.7-3.028-4.02-3.028-2.207,0-3.311.96-3.311,2.629,0,1.833,1.343,2.514,3.306,3.147l-1.207,2.686c-2.426-.813-5.155-2.028-5.155-5.777,0-3.422,2.378-5.374,6.367-5.374,3.482,0,6.115,1.442,6.877,4.952" transform="translate(-19.804 -92.943)" fill="#fff"/><rect width="4.179" height="4.179" transform="translate(34.362 96.846)" fill="#fff"/><path d="M112.505,196.652h7.641v-2.8h-7.641Z" transform="translate(-60.295 -103.891)" fill="#fff"/><path d="M105.867,188.551a6.063,6.063,0,0,1-5.2,2.557c-3.707,0-6.169-2.632-6.169-7.528,0-4.669,2.292-7.329,5.915-7.329a5.231,5.231,0,0,1,5.207,3.424l2.915-.792a7.993,7.993,0,0,0-8.038-5.462c-5.264,0-9.028,3.623-9.028,10.245s3.906,10.273,8.83,10.273a7.584,7.584,0,0,0,5.83-2.547h.057c0,.226-.028.51-.028,2.208h2.717v-5.048Z" transform="translate(-49.02 -92.942)" fill="#fff"/><path d="M148.609,174.213h-3.594l-6.961,19.81h3.113l1.529-4.585h.042l.925-2.745h-.034l1.7-5.066c.594-1.783,1.387-4.16,1.415-4.217h.085c.028.057.821,2.462,1.415,4.245l1.7,5.037H148.32l-1.014,2.745h3.539l1.556,4.585h3.17Z" transform="translate(-73.987 -93.367)" fill="#fff"/><path d="M193.463,174.213h-2.98v2.8h.006v17.008h2.972V177.015h0Z" transform="translate(-102.086 -93.367)" fill="#fff"/><path d="M203.354,179.253l-4.778-5.027h4.778Z" transform="translate(-106.423 -93.374)" fill="#fff"/><path d="M178.493,179.253l4.778-5.027h-4.778Z" transform="translate(-95.66 -93.374)" fill="#fff"/></g></svg>